<?xml version="1.0" encoding="UTF-8"?>
<svg id="Layer_2" xmlns="http://www.w3.org/2000/svg" viewBox="0 0 512 512">
  <defs>
    <style>
      .symbol {
        fill: #fff;
      }

      .bg {
        fill: #f7084d;
      }
    </style>
  </defs>
  <g id="Layer_1-2" data-name="Layer_1">
    <path class="bg" d="M256,512C8,512,0,504,0,256S8,0,256,0s256,8,256,256-8,256-256,256Z"/>
    <path class="symbol" d="M115.71,442.82c-1.49,0-3-.03-4.5-.09-8.03-.35-15.04-1.43-21.38-3.3,6.06-1.79,12.14-4.31,18.97-7.86,55.19-29.67,53.61-81.5,44.79-128.29-3.06-16.79-8.34-33.22-15.72-48.85-9.31-19.51-21.2-37.44-34.38-51.85-16.19-18.75-19.99-41.5-10.42-62.38,9.8-21.4,31.66-35.78,54.4-35.78,15.63,0,30.74,6.64,43.67,19.2,6.65,7.62,12.94,16.26,18.66,25.65l.45.74.42-.76c8.72-15.81,23.63-38.74,45.07-58.15,12.04-10.9,37.16-21.9,66.13-21.9,19.19,0,46.69,4.94,68.66,28.48,25.97,27.82,36.96,73.44,32.68,135.6-2.7,39.23-13.22,72.82-31.27,99.82-14.83,22.18-34.84,40.12-59.47,53.31-43.78,23.44-90.12,25.26-103.28,25.26-1.3,0-2.33-.02-3.08-.04,6.41-4.98,38.96-31.23,60.63-66.88,22.72-37.4,32.88-96.09,23.12-133.62-4.13-15.89-11.37-26.86-21.5-32.61-6.68-3.79-13.62-5.71-20.63-5.71-15.87,0-29.36,9.76-37.88,17.95l-.23.22.11.3c5.44,15.15,9.41,30.7,11.79,46.22,3.89,25.16,3.69,50.72-.6,75.97-5.17,24.94-12.82,46.08-23.38,64.61-22.65,40.54-60.71,64.74-101.81,64.74Z"/>
</svg>