<svg viewBox="0 0 24 24"><style>.symbol {fill: #fff;.bg {fill: #f7084d;}</style><path class="bg" d="M12,24C3,24,0,21,0,12S3,0,12,0s12,3,12,12-3,12-12,12Z"/><path class="symbol" d="M8.71,17.03c.97-1.1.85-2.57.64-3.67-.1-.55-.27-1.09-.52-1.61-.31-.64-.7-1.23-1.13-1.7-.49-.57-.36-1.1-.23-1.37.22-.48.71-.81,1.22-.81.35,0,.69.16.99.45.16.18.33.43.49.69l.45.74.42-.76c.25-.45.67-1.1,1.28-1.65.29-.26.94-.54,1.69-.54.49,0,1.19.12,1.74.71.69.74.99,2.04.87,3.77-.24,3.47-2.58,4.54-4.15,4.86.3-.33.62-.73.89-1.17.76-1.26,1.09-3.17.76-4.45-.16-.61-.46-1.06-.89-1.29-.28-.16-.57-.24-.87-.24-.51,0-1.03.24-1.49.68l-.23.22.11.31c.16.43.27.88.34,1.32.11.72.11,1.45-.02,2.16-.14.69-.36,1.29-.66,1.81-.41.74-1.01,1.28-1.69,1.54Z"/><path class="symbol" d="M14.01,7.29h0c.57,0,1.03.19,1.37.56.59.63.84,1.81.73,3.4-.15,2.18-1.18,3.32-2.3,3.91.8-1.36,1.13-3.39.77-4.76-.24-.94-.74-1.39-1.12-1.6-.35-.2-.73-.3-1.12-.3-.15,0-.29.01-.43.04.2-.27.44-.56.73-.82.18-.16.7-.41,1.36-.41M8.69,8.36c.21,0,.42.09.62.28.16.18.3.39.44.61l.31.5.22.6c.14.4.25.81.31,1.23.1.66.1,1.34,0,1.97-.14.65-.33,1.2-.6,1.68.09-.83-.06-1.58-.13-1.97-.11-.6-.3-1.18-.56-1.74-.33-.68-.74-1.31-1.19-1.8-.24-.28-.3-.57-.17-.85.14-.3.45-.52.76-.52M14.01,6.29c-.84,0-1.62.31-2.03.67-.65.59-1.1,1.28-1.38,1.78-.17-.28-.36-.55-.57-.79-.43-.42-.9-.59-1.34-.59-1.38,0-2.51,1.68-1.35,3.02.42.46.77,1.01,1.05,1.58.22.47.38.97.48,1.49.3,1.57.22,3.05-1.36,3.9-.2.1-.41.19-.63.25.23.07.47.11.71.12.05,0,.09,0,.14,0,1.35,0,2.48-.83,3.12-1.98.35-.62.57-1.29.72-1.98.13-.77.14-1.55.02-2.32-.07-.47-.19-.95-.36-1.41.26-.25.67-.54,1.14-.54.2,0,.41.05.62.17,1.14.65.89,3.49-.06,5.05-.74,1.22-1.88,2.06-1.88,2.06,0,0,.05,0,.14,0,.87,0,5.57-.24,5.93-5.46.27-3.92-1.51-5.02-3.11-5.02h0Z"/></svg>